<?xml version="1.0" encoding="UTF-8"?>
<svg id="Layer_2" data-name="Layer 2" xmlns="http://www.w3.org/2000/svg" viewBox="0 0 128 128">
  <defs>
    <style>
      .cls-1 {
        fill: #f5f1ef;
      }

      .cls-2, .cls-3 {
        fill: #1e3e39;
      }

      .cls-3 {
        stroke: #1e3e39;
        stroke-linecap: round;
        stroke-linejoin: round;
        stroke-width: .25px;
      }
    </style>
  </defs>
  <g id="Layer_1-2" data-name="Layer 1">
    <rect class="cls-1" width="128" height="128" rx="30" ry="30"/>
    <g>
      <path class="cls-2" d="m29.95,73.09c.13.07.29.21.46.43l13.34,17.35c-.03-.28-.05-.55-.06-.81s-.02-.52-.02-.76v-16.31h2.73v23.03h-1.57c-.25,0-.45-.04-.62-.13-.17-.09-.33-.23-.49-.43l-13.32-17.34c.02.27.04.53.05.79.01.26.02.49.02.71v16.41h-2.73v-23.03h1.61c.28,0,.48.03.62.1Z"/>
      <path class="cls-2" d="m70.69,96.01h-3.13v-10.48h-12.41v10.48h-3.13v-23.03h3.13v10.27h12.41v-10.27h3.13v23.03Z"/>
      <path class="cls-2" d="m88.04,88.5c.11.28.22.57.33.86.11-.3.22-.59.34-.86.12-.27.25-.55.4-.83l7.79-14.16c.14-.25.28-.4.43-.45.15-.05.36-.08.64-.08h2.3v23.03h-2.73v-16.92c0-.22,0-.47.02-.72.01-.26.03-.52.05-.79l-7.89,14.4c-.27.48-.64.72-1.13.72h-.45c-.48,0-.86-.24-1.12-.72l-8.07-14.45c.03.28.06.55.07.82.02.27.02.51.02.74v16.92h-2.73v-23.03h2.3c.28,0,.49.03.64.08.15.05.29.2.43.45l7.95,14.17c.15.26.28.53.39.81Z"/>
    </g>
    <g>
      <path class="cls-2" d="m33.23,59.73h11.85v4.54h-17.35v-29.59h5.5v25.04Z"/>
      <path class="cls-2" d="m54.57,47.08h1.29c.52,0,.95-.07,1.29-.21s.63-.37.88-.69l8.16-10.33c.34-.44.7-.74,1.07-.91.37-.17.85-.26,1.42-.26h4.75l-9.96,12.3c-.31.38-.61.7-.9.96-.29.26-.59.47-.92.63.45.16.86.4,1.22.7.36.3.71.68,1.05,1.15l10.27,13.85h-4.87c-.65,0-1.14-.09-1.46-.28-.32-.18-.59-.45-.81-.81l-8.37-10.93c-.27-.35-.58-.61-.92-.77-.34-.16-.83-.24-1.45-.24h-1.74v13.01h-5.5v-29.61h5.5v12.42Z"/>
      <path class="cls-2" d="m97.17,57.29c.3,0,.56.12.78.35l2.17,2.35c-1.2,1.49-2.68,2.63-4.43,3.42s-3.86,1.19-6.31,1.19c-2.2,0-4.17-.37-5.92-1.13-1.75-.75-3.25-1.79-4.49-3.13-1.24-1.34-2.19-2.93-2.85-4.79-.66-1.86-.99-3.88-.99-6.08s.37-4.26,1.1-6.11c.74-1.85,1.77-3.44,3.11-4.78s2.94-2.38,4.8-3.12c1.86-.74,3.92-1.11,6.17-1.11s4.12.35,5.76,1.05c1.64.7,3.05,1.63,4.22,2.79l-1.84,2.56c-.11.16-.25.31-.42.43-.17.12-.41.18-.71.18s-.63-.12-.96-.37-.74-.51-1.25-.8c-.5-.29-1.14-.55-1.91-.8-.77-.25-1.75-.37-2.94-.37-1.39,0-2.67.24-3.84.73-1.17.48-2.17,1.18-3.01,2.08-.84.9-1.49,1.99-1.96,3.28s-.71,2.74-.71,4.35.24,3.14.71,4.44c.47,1.3,1.11,2.39,1.91,3.27.8.89,1.75,1.57,2.84,2.04s2.26.71,3.52.71c.75,0,1.43-.04,2.04-.12.61-.08,1.17-.21,1.68-.39.51-.18,1-.41,1.45-.69.46-.28.91-.62,1.36-1.03.14-.12.28-.22.43-.3.15-.07.31-.11.49-.11Z"/>
    </g>
    <path class="cls-3" d="m105.74,73.06h1.36v.69c0,1.46-.29,2.23-.4,2.44.19-.15.86-.61,2.23-1.09l.63-.21.44,1.29-.65.21c-.86.31-1.69.42-2.46.38.19.1.83.6,1.73,1.79l.4.54-1.09.81-.4-.56c-.9-1.25-1.09-2.07-1.11-2.23-.02.15-.25.96-1.15,2.21l-.4.56-1.09-.81.4-.54c.9-1.27,1.63-1.69,1.75-1.77-.69.04-1.57-.12-2.44-.4l-.63-.21.42-1.29.63.21c1.48.48,2.11,1.02,2.21,1.13-.06-.13-.36-.9-.36-2.46v-.69Z"/>
  </g>
</svg>